STARTFONT 2.1
FONT -sun-arioso-bold-r-normal--8-80-75-75-p-43-adobe-fontspecific
SIZE 8 75 75
FONTBOUNDINGBOX 11 10 -2 -2

STARTPROPERTIES 28
FOUNDRY "sun"
FAMILY_NAME "arioso"
WEIGHT_NAME "bold"
SLANT "r"
SETWIDTH_NAME "normal"
ADD_STYLE_NAME ""
PIXEL_SIZE 8
POINT_SIZE 80
RESOLUTION_X 75
RESOLUTION_Y 75
SPACING "p"
AVERAGE_WIDTH 43
CHARSET_REGISTRY "adobe"
CHARSET_ENCODING "fontspecific"
COPYRIGHT "© 1999 Sun Microsystems, Inc."
RAW_PIXELSIZE 1000
RAW_POINTSIZE 964
RAW_ASCENT 906
RAW_DESCENT 247
RAW_AVERAGE_WIDTH 5188
FACE_NAME "AriosoBold"
_XMBDFED_INFO "Edited with xmbdfed 2.4."
WEIGHT 10
X_HEIGHT 0
QUAD_WIDTH 4
DEFAULT_CHAR 4
FONT_DESCENT 2
FONT_ASCENT 8
ENDPROPERTIES

CHARS 195

STARTCHAR char32
ENCODING 32
SWIDTH 21 0
DWIDTH 2 0
BBX 0 0 0 0
BITMAP
ENDCHAR

STARTCHAR char33
ENCODING 33
SWIDTH 32 0
DWIDTH 3 0
BBX 3 6 0 0
BITMAP
20
20
40
40
00
C0
ENDCHAR

STARTCHAR char34
ENCODING 34
SWIDTH 32 0
DWIDTH 3 0
BBX 3 2 1 4
BITMAP
60
E0
ENDCHAR

STARTCHAR char35
ENCODING 35
SWIDTH 53 0
DWIDTH 5 0
BBX 5 6 0 0
BITMAP
50
78
50
70
D0
50
ENDCHAR

STARTCHAR char36
ENCODING 36
SWIDTH 53 0
DWIDTH 5 0
BBX 5 7 0 -1
BITMAP
78
D8
E0
38
58
F0
40
ENDCHAR

STARTCHAR char37
ENCODING 37
SWIDTH 64 0
DWIDTH 6 0
BBX 7 6 0 0
BITMAP
48
B0
D4
FE
5E
5C
ENDCHAR

STARTCHAR char38
ENCODING 38
SWIDTH 43 0
DWIDTH 4 0
BBX 5 5 -1 0
BITMAP
38
38
78
C8
F8
ENDCHAR

STARTCHAR char39
ENCODING 39
SWIDTH 21 0
DWIDTH 2 0
BBX 2 2 0 4
BITMAP
40
C0
ENDCHAR

STARTCHAR char40
ENCODING 40
SWIDTH 32 0
DWIDTH 3 0
BBX 3 7 0 -1
BITMAP
20
20
40
40
80
80
80
ENDCHAR

STARTCHAR char41
ENCODING 41
SWIDTH 32 0
DWIDTH 3 0
BBX 4 8 -1 -2
BITMAP
10
10
20
20
20
40
C0
80
ENDCHAR

STARTCHAR char42
ENCODING 42
SWIDTH 32 0
DWIDTH 3 0
BBX 3 3 1 3
BITMAP
C0
E0
40
ENDCHAR

STARTCHAR char43
ENCODING 43
SWIDTH 53 0
DWIDTH 5 0
BBX 4 5 1 0
BITMAP
60
60
F0
60
60
ENDCHAR

STARTCHAR char44
ENCODING 44
SWIDTH 21 0
DWIDTH 2 0
BBX 2 2 0 -1
BITMAP
C0
80
ENDCHAR

STARTCHAR char45
ENCODING 45
SWIDTH 32 0
DWIDTH 3 0
BBX 3 1 0 1
BITMAP
E0
ENDCHAR

STARTCHAR char46
ENCODING 46
SWIDTH 21 0
DWIDTH 2 0
BBX 2 1 0 0
BITMAP
C0
ENDCHAR

STARTCHAR char47
ENCODING 47
SWIDTH 43 0
DWIDTH 4 0
BBX 4 6 0 0
BITMAP
10
10
20
40
40
80
ENDCHAR

STARTCHAR char48
ENCODING 48
SWIDTH 53 0
DWIDTH 5 0
BBX 4 6 0 0
BITMAP
20
50
50
90
90
60
ENDCHAR

STARTCHAR char49
ENCODING 49
SWIDTH 53 0
DWIDTH 5 0
BBX 3 5 1 0
BITMAP
20
C0
40
40
80
ENDCHAR

STARTCHAR char50
ENCODING 50
SWIDTH 53 0
DWIDTH 5 0
BBX 4 6 0 0
BITMAP
20
70
50
20
C0
E0
ENDCHAR

STARTCHAR char51
ENCODING 51
SWIDTH 53 0
DWIDTH 5 0
BBX 4 6 0 0
BITMAP
60
70
10
60
20
E0
ENDCHAR

STARTCHAR char52
ENCODING 52
SWIDTH 53 0
DWIDTH 5 0
BBX 4 5 0 0
BITMAP
10
70
60
F0
20
ENDCHAR

STARTCHAR char53
ENCODING 53
SWIDTH 53 0
DWIDTH 5 0
BBX 4 5 0 0
BITMAP
30
40
70
30
E0
ENDCHAR

STARTCHAR char54
ENCODING 54
SWIDTH 53 0
DWIDTH 5 0
BBX 4 5 0 0
BITMAP
10
60
F0
D0
E0
ENDCHAR

STARTCHAR char55
ENCODING 55
SWIDTH 53 0
DWIDTH 5 0
BBX 3 5 1 0
BITMAP
E0
20
40
40
80
ENDCHAR

STARTCHAR char56
ENCODING 56
SWIDTH 53 0
DWIDTH 5 0
BBX 6 6 -1 0
BITMAP
10
3C
3C
38
D8
F0
ENDCHAR

STARTCHAR char57
ENCODING 57
SWIDTH 53 0
DWIDTH 5 0
BBX 5 6 0 0
BITMAP
20
58
D8
D0
20
40
ENDCHAR

STARTCHAR char58
ENCODING 58
SWIDTH 21 0
DWIDTH 2 0
BBX 3 3 0 0
BITMAP
60
00
80
ENDCHAR

STARTCHAR char59
ENCODING 59
SWIDTH 21 0
DWIDTH 2 0
BBX 2 4 0 -1
BITMAP
C0
00
C0
40
ENDCHAR

STARTCHAR char60
ENCODING 60
SWIDTH 53 0
DWIDTH 5 0
BBX 5 4 0 0
BITMAP
30
40
60
18
ENDCHAR

STARTCHAR char61
ENCODING 61
SWIDTH 53 0
DWIDTH 5 0
BBX 6 2 0 1
BITMAP
FC
FC
ENDCHAR

STARTCHAR char62
ENCODING 62
SWIDTH 53 0
DWIDTH 5 0
BBX 5 4 0 0
BITMAP
60
10
30
C0
ENDCHAR

STARTCHAR char63
ENCODING 63
SWIDTH 43 0
DWIDTH 4 0
BBX 4 6 0 0
BITMAP
60
50
60
C0
40
C0
ENDCHAR

STARTCHAR char64
ENCODING 64
SWIDTH 86 0
DWIDTH 8 0
BBX 7 6 1 0
BITMAP
38
7C
EE
EC
7C
38
ENDCHAR

STARTCHAR char65
ENCODING 65
SWIDTH 86 0
DWIDTH 8 0
BBX 9 6 -1 0
BITMAP
0100
0300
0700
3E00
CE00
F780
ENDCHAR

STARTCHAR char66
ENCODING 66
SWIDTH 75 0
DWIDTH 7 0
BBX 8 6 -1 0
BITMAP
3E
4B
CE
CA
12
3C
ENDCHAR

STARTCHAR char67
ENCODING 67
SWIDTH 53 0
DWIDTH 5 0
BBX 7 6 -1 0
BITMAP
1E
26
64
E8
F0
7C
ENDCHAR

STARTCHAR char68
ENCODING 68
SWIDTH 75 0
DWIDTH 7 0
BBX 9 6 -1 0
BITMAP
3F00
6580
4980
C980
1300
1C00
ENDCHAR

STARTCHAR char69
ENCODING 69
SWIDTH 53 0
DWIDTH 5 0
BBX 7 6 -1 0
BITMAP
0C
14
10
60
C6
F8
ENDCHAR

STARTCHAR char70
ENCODING 70
SWIDTH 86 0
DWIDTH 8 0
BBX 9 8 -1 -2
BITMAP
3F00
2200
4200
CF80
CE00
4C00
1C00
1800
ENDCHAR

STARTCHAR char71
ENCODING 71
SWIDTH 75 0
DWIDTH 7 0
BBX 7 8 0 -2
BITMAP
1E
64
48
76
C4
7E
18
30
ENDCHAR

STARTCHAR char72
ENCODING 72
SWIDTH 86 0
DWIDTH 8 0
BBX 9 6 -1 0
BITMAP
3F80
4B00
0E00
3D80
5D80
EF00
ENDCHAR

STARTCHAR char73
ENCODING 73
SWIDTH 53 0
DWIDTH 5 0
BBX 7 6 -1 0
BITMAP
3E
44
04
34
4C
70
ENDCHAR

STARTCHAR char74
ENCODING 74
SWIDTH 53 0
DWIDTH 5 0
BBX 7 8 -1 -2
BITMAP
1E
24
44
48
CC
30
F0
40
ENDCHAR

STARTCHAR char75
ENCODING 75
SWIDTH 86 0
DWIDTH 8 0
BBX 9 6 0 0
BITMAP
3D00
4A00
0E00
0800
1C00
E780
ENDCHAR

STARTCHAR char76
ENCODING 76
SWIDTH 64 0
DWIDTH 6 0
BBX 8 6 -1 0
BITMAP
07
0B
0A
0A
10
FF
ENDCHAR

STARTCHAR char77
ENCODING 77
SWIDTH 96 0
DWIDTH 9 0
BBX 9 6 0 0
BITMAP
0780
0F00
1F00
1F00
2A00
EB80
ENDCHAR

STARTCHAR char78
ENCODING 78
SWIDTH 75 0
DWIDTH 7 0
BBX 9 6 -1 0
BITMAP
1B00
2500
4E00
CA00
DE00
3F80
ENDCHAR

STARTCHAR char79
ENCODING 79
SWIDTH 64 0
DWIDTH 6 0
BBX 6 6 -1 0
BITMAP
2C
74
D4
C4
CC
70
ENDCHAR

STARTCHAR char80
ENCODING 80
SWIDTH 86 0
DWIDTH 8 0
BBX 9 8 -1 -2
BITMAP
1F00
6580
C980
C980
5100
1E00
3000
2000
ENDCHAR

STARTCHAR char81
ENCODING 81
SWIDTH 53 0
DWIDTH 5 0
BBX 7 8 -1 -2
BITMAP
38
4C
CC
CC
48
72
0E
04
ENDCHAR

STARTCHAR char82
ENCODING 82
SWIDTH 75 0
DWIDTH 7 0
BBX 8 6 -1 0
BITMAP
1E
6B
4B
D6
58
17
ENDCHAR

STARTCHAR char83
ENCODING 83
SWIDTH 53 0
DWIDTH 5 0
BBX 7 6 -1 0
BITMAP
3C
3C
30
78
CE
F8
ENDCHAR

STARTCHAR char84
ENCODING 84
SWIDTH 64 0
DWIDTH 6 0
BBX 7 6 -1 0
BITMAP
3E
44
C4
F4
38
78
ENDCHAR

STARTCHAR char85
ENCODING 85
SWIDTH 75 0
DWIDTH 7 0
BBX 9 6 -1 0
BITMAP
1D00
6F00
4B00
DE00
5E00
1F80
ENDCHAR

STARTCHAR char86
ENCODING 86
SWIDTH 86 0
DWIDTH 8 0
BBX 9 6 -1 0
BITMAP
1D80
6580
C980
D900
5B00
1C00
ENDCHAR

STARTCHAR char87
ENCODING 87
SWIDTH 96 0
DWIDTH 9 0
BBX 9 6 0 0
BITMAP
7F80
9580
2D80
3D80
3D00
2E00
ENDCHAR

STARTCHAR char88
ENCODING 88
SWIDTH 75 0
DWIDTH 7 0
BBX 10 6 -1 0
BITMAP
3DC0
4E00
CC00
DA80
1900
FE00
ENDCHAR

STARTCHAR char89
ENCODING 89
SWIDTH 75 0
DWIDTH 7 0
BBX 8 8 -1 -2
BITMAP
1D
6F
DB
FA
76
3E
14
18
ENDCHAR

STARTCHAR char90
ENCODING 90
SWIDTH 75 0
DWIDTH 7 0
BBX 9 6 -1 0
BITMAP
0E80
3D00
2A00
6F00
3800
FF00
ENDCHAR

STARTCHAR char91
ENCODING 91
SWIDTH 32 0
DWIDTH 3 0
BBX 5 8 -1 -2
BITMAP
18
30
20
20
40
40
40
40
ENDCHAR

STARTCHAR char92
ENCODING 92
SWIDTH 21 0
DWIDTH 2 0
BBX 2 6 0 0
BITMAP
80
80
40
40
40
40
ENDCHAR

STARTCHAR char93
ENCODING 93
SWIDTH 32 0
DWIDTH 3 0
BBX 5 8 -2 -2
BITMAP
10
08
10
10
20
20
20
40
ENDCHAR

STARTCHAR char94
ENCODING 94
SWIDTH 0 0
DWIDTH 0 0
BBX 2 2 0 6
BITMAP
40
C0
ENDCHAR

STARTCHAR char95
ENCODING 95
SWIDTH 53 0
DWIDTH 5 0
BBX 5 1 0 -1
BITMAP
F8
ENDCHAR

STARTCHAR char96
ENCODING 96
SWIDTH 0 0
DWIDTH 0 0
BBX 2 1 0 4
BITMAP
40
ENDCHAR

STARTCHAR char97
ENCODING 97
SWIDTH 43 0
DWIDTH 4 0
BBX 5 3 -1 0
BITMAP
70
D0
F8
ENDCHAR

STARTCHAR char98
ENCODING 98
SWIDTH 43 0
DWIDTH 4 0
BBX 5 6 -1 0
BITMAP
20
20
70
78
D8
E8
ENDCHAR

STARTCHAR char99
ENCODING 99
SWIDTH 32 0
DWIDTH 3 0
BBX 5 3 -1 0
BITMAP
70
D0
F0
ENDCHAR

STARTCHAR char100
ENCODING 100
SWIDTH 43 0
DWIDTH 4 0
BBX 5 6 -1 0
BITMAP
08
08
18
70
F0
F8
ENDCHAR

STARTCHAR char101
ENCODING 101
SWIDTH 32 0
DWIDTH 3 0
BBX 4 3 -1 0
BITMAP
70
E0
F0
ENDCHAR

STARTCHAR char102
ENCODING 102
SWIDTH 32 0
DWIDTH 3 0
BBX 5 7 -1 -1
BITMAP
18
18
30
60
A0
70
40
ENDCHAR

STARTCHAR char103
ENCODING 103
SWIDTH 43 0
DWIDTH 4 0
BBX 6 5 -1 -2
BITMAP
70
D0
DC
20
40
ENDCHAR

STARTCHAR char104
ENCODING 104
SWIDTH 43 0
DWIDTH 4 0
BBX 4 6 0 0
BITMAP
20
40
40
F0
E0
F0
ENDCHAR

STARTCHAR char105
ENCODING 105
SWIDTH 21 0
DWIDTH 2 0
BBX 4 5 -1 0
BITMAP
30
00
60
E0
F0
ENDCHAR

STARTCHAR char106
ENCODING 106
SWIDTH 32 0
DWIDTH 3 0
BBX 4 7 -1 -2
BITMAP
30
00
60
20
C0
C0
40
ENDCHAR

STARTCHAR char107
ENCODING 107
SWIDTH 43 0
DWIDTH 4 0
BBX 5 6 0 0
BITMAP
40
40
40
F0
E0
F8
ENDCHAR

STARTCHAR char108
ENCODING 108
SWIDTH 21 0
DWIDTH 2 0
BBX 4 6 -1 0
BITMAP
20
20
60
40
C0
E0
ENDCHAR

STARTCHAR char109
ENCODING 109
SWIDTH 64 0
DWIDTH 6 0
BBX 8 3 -1 0
BITMAP
7E
FC
FD
ENDCHAR

STARTCHAR char110
ENCODING 110
SWIDTH 43 0
DWIDTH 4 0
BBX 5 3 0 0
BITMAP
F0
E0
F8
ENDCHAR

STARTCHAR char111
ENCODING 111
SWIDTH 43 0
DWIDTH 4 0
BBX 5 4 -1 0
BITMAP
30
78
D8
F0
ENDCHAR

STARTCHAR char112
ENCODING 112
SWIDTH 43 0
DWIDTH 4 0
BBX 6 4 -1 -1
BITMAP
78
B8
FC
50
ENDCHAR

STARTCHAR char113
ENCODING 113
SWIDTH 43 0
DWIDTH 4 0
BBX 5 5 -1 -2
BITMAP
78
D0
D8
30
10
ENDCHAR

STARTCHAR char114
ENCODING 114
SWIDTH 32 0
DWIDTH 3 0
BBX 3 3 0 0
BITMAP
A0
E0
C0
ENDCHAR

STARTCHAR char115
ENCODING 115
SWIDTH 32 0
DWIDTH 3 0
BBX 4 3 0 0
BITMAP
60
60
F0
ENDCHAR

STARTCHAR char116
ENCODING 116
SWIDTH 21 0
DWIDTH 2 0
BBX 3 5 -1 0
BITMAP
20
60
60
C0
E0
ENDCHAR

STARTCHAR char117
ENCODING 117
SWIDTH 43 0
DWIDTH 4 0
BBX 5 3 -1 0
BITMAP
50
D0
F8
ENDCHAR

STARTCHAR char118
ENCODING 118
SWIDTH 43 0
DWIDTH 4 0
BBX 5 4 -1 0
BITMAP
18
78
D8
F8
ENDCHAR

STARTCHAR char119
ENCODING 119
SWIDTH 64 0
DWIDTH 6 0
BBX 8 4 -1 0
BITMAP
0C
5E
D6
F9
ENDCHAR

STARTCHAR char120
ENCODING 120
SWIDTH 43 0
DWIDTH 4 0
BBX 6 3 -1 0
BITMAP
78
20
F8
ENDCHAR

STARTCHAR char121
ENCODING 121
SWIDTH 43 0
DWIDTH 4 0
BBX 6 5 -1 -2
BITMAP
50
D0
FC
20
40
ENDCHAR

STARTCHAR char122
ENCODING 122
SWIDTH 32 0
DWIDTH 3 0
BBX 4 3 0 0
BITMAP
E0
80
F0
ENDCHAR

STARTCHAR char123
ENCODING 123
SWIDTH 32 0
DWIDTH 3 0
BBX 2 8 0 -2
BITMAP
C0
40
C0
80
40
C0
C0
C0
ENDCHAR

STARTCHAR char124
ENCODING 124
SWIDTH 21 0
DWIDTH 2 0
BBX 2 6 0 0
BITMAP
C0
C0
C0
C0
C0
C0
ENDCHAR

STARTCHAR char125
ENCODING 125
SWIDTH 32 0
DWIDTH 3 0
BBX 2 8 0 -2
BITMAP
C0
C0
C0
40
C0
40
C0
C0
ENDCHAR

STARTCHAR char126
ENCODING 126
SWIDTH 0 0
DWIDTH 0 0
BBX 3 1 0 6
BITMAP
C0
ENDCHAR

STARTCHAR char128
ENCODING 128
SWIDTH 53 0
DWIDTH 5 0
BBX 7 6 -1 0
BITMAP
1C
62
70
D0
C0
7C
ENDCHAR

STARTCHAR char130
ENCODING 130
SWIDTH 21 0
DWIDTH 2 0
BBX 2 2 0 -1
BITMAP
C0
80
ENDCHAR

STARTCHAR char131
ENCODING 131
SWIDTH 0 0
DWIDTH 0 0
BBX 2 2 0 6
BITMAP
40
C0
ENDCHAR

STARTCHAR char132
ENCODING 132
SWIDTH 32 0
DWIDTH 3 0
BBX 3 2 0 -1
BITMAP
E0
A0
ENDCHAR

STARTCHAR char133
ENCODING 133
SWIDTH 86 0
DWIDTH 8 0
BBX 7 1 1 0
BITMAP
F6
ENDCHAR

STARTCHAR char134
ENCODING 134
SWIDTH 43 0
DWIDTH 4 0
BBX 4 7 0 -1
BITMAP
10
70
20
60
40
40
40
ENDCHAR

STARTCHAR char136
ENCODING 136
SWIDTH 0 0
DWIDTH 0 0
BBX 3 2 -1 4
BITMAP
40
60
ENDCHAR

STARTCHAR char139
ENCODING 139
SWIDTH 32 0
DWIDTH 3 0
BBX 1 3 1 1
BITMAP
80
80
80
ENDCHAR

STARTCHAR char140
ENCODING 140
SWIDTH 96 0
DWIDTH 9 0
BBX 10 6 -1 0
BITMAP
2D80
3780
5700
C400
CCC0
7F00
ENDCHAR

STARTCHAR char145
ENCODING 145
SWIDTH 21 0
DWIDTH 2 0
BBX 2 2 0 4
BITMAP
40
C0
ENDCHAR

STARTCHAR char146
ENCODING 146
SWIDTH 21 0
DWIDTH 2 0
BBX 2 2 1 4
BITMAP
40
80
ENDCHAR

STARTCHAR char147
ENCODING 147
SWIDTH 32 0
DWIDTH 3 0
BBX 3 2 1 4
BITMAP
60
E0
ENDCHAR

STARTCHAR char148
ENCODING 148
SWIDTH 32 0
DWIDTH 3 0
BBX 3 2 1 4
BITMAP
60
E0
ENDCHAR

STARTCHAR char149
ENCODING 149
SWIDTH 32 0
DWIDTH 3 0
BBX 2 2 0 2
BITMAP
C0
C0
ENDCHAR

STARTCHAR char150
ENCODING 150
SWIDTH 53 0
DWIDTH 5 0
BBX 4 1 0 1
BITMAP
F0
ENDCHAR

STARTCHAR char151
ENCODING 151
SWIDTH 53 0
DWIDTH 5 0
BBX 6 1 0 2
BITMAP
FC
ENDCHAR

STARTCHAR char152
ENCODING 152
SWIDTH 0 0
DWIDTH 0 0
BBX 3 1 -1 4
BITMAP
60
ENDCHAR

STARTCHAR char153
ENCODING 153
SWIDTH 75 0
DWIDTH 7 0
BBX 7 4 0 2
BITMAP
F2
7E
FE
7E
ENDCHAR

STARTCHAR char155
ENCODING 155
SWIDTH 32 0
DWIDTH 3 0
BBX 1 3 1 1
BITMAP
80
80
80
ENDCHAR

STARTCHAR char156
ENCODING 156
SWIDTH 53 0
DWIDTH 5 0
BBX 6 3 -1 0
BITMAP
7C
D8
FC
ENDCHAR

STARTCHAR char159
ENCODING 159
SWIDTH 75 0
DWIDTH 7 0
BBX 8 9 -1 -2
BITMAP
0E
1D
6F
DB
FE
7E
1E
14
18
ENDCHAR

STARTCHAR char160
ENCODING 160
SWIDTH 21 0
DWIDTH 2 0
BBX 0 0 0 0
BITMAP
ENDCHAR

STARTCHAR char161
ENCODING 161
SWIDTH 32 0
DWIDTH 3 0
BBX 3 6 0 0
BITMAP
60
00
40
40
80
80
ENDCHAR

STARTCHAR char162
ENCODING 162
SWIDTH 32 0
DWIDTH 3 0
BBX 5 5 -1 -1
BITMAP
20
50
E0
F0
40
ENDCHAR

STARTCHAR char163
ENCODING 163
SWIDTH 64 0
DWIDTH 6 0
BBX 7 6 -1 0
BITMAP
1C
36
30
3C
30
FC
ENDCHAR

STARTCHAR char164
ENCODING 164
SWIDTH 0 0
DWIDTH 0 0
BBX 2 1 0 6
BITMAP
40
ENDCHAR

STARTCHAR char165
ENCODING 165
SWIDTH 0 0
DWIDTH 0 0
BBX 2 1 0 6
BITMAP
C0
ENDCHAR

STARTCHAR char167
ENCODING 167
SWIDTH 43 0
DWIDTH 4 0
BBX 7 8 -2 -2
BITMAP
04
1E
18
2C
2C
28
18
78
ENDCHAR

STARTCHAR char168
ENCODING 168
SWIDTH 0 0
DWIDTH 0 0
BBX 3 1 -1 4
BITMAP
E0
ENDCHAR

STARTCHAR char169
ENCODING 169
SWIDTH 64 0
DWIDTH 6 0
BBX 8 6 -1 0
BITMAP
18
7C
66
F3
7E
3C
ENDCHAR

STARTCHAR char170
ENCODING 170
SWIDTH 0 0
DWIDTH 0 0
BBX 4 1 -1 6
BITMAP
F0
ENDCHAR

STARTCHAR char171
ENCODING 171
SWIDTH 43 0
DWIDTH 4 0
BBX 4 2 0 1
BITMAP
A0
A0
ENDCHAR

STARTCHAR char172
ENCODING 172
SWIDTH 64 0
DWIDTH 6 0
BBX 6 3 0 0
BITMAP
FC
0C
0C
ENDCHAR

STARTCHAR char174
ENCODING 174
SWIDTH 64 0
DWIDTH 6 0
BBX 8 6 -1 0
BITMAP
18
7C
6E
FB
5E
3C
ENDCHAR

STARTCHAR char176
ENCODING 176
SWIDTH 21 0
DWIDTH 2 0
BBX 4 4 0 2
BITMAP
40
F0
60
20
ENDCHAR

STARTCHAR char177
ENCODING 177
SWIDTH 43 0
DWIDTH 4 0
BBX 4 5 0 0
BITMAP
60
F0
60
60
F0
ENDCHAR

STARTCHAR char180
ENCODING 180
SWIDTH 0 0
DWIDTH 0 0
BBX 2 1 0 4
BITMAP
80
ENDCHAR

STARTCHAR char182
ENCODING 182
SWIDTH 64 0
DWIDTH 6 0
BBX 4 7 1 -1
BITMAP
E0
F0
F0
F0
F0
F0
F0
ENDCHAR

STARTCHAR char183
ENCODING 183
SWIDTH 10 0
DWIDTH 1 0
BBX 2 1 0 2
BITMAP
C0
ENDCHAR

STARTCHAR char184
ENCODING 184
SWIDTH 0 0
DWIDTH 0 0
BBX 3 1 -2 -1
BITMAP
60
ENDCHAR

STARTCHAR char186
ENCODING 186
SWIDTH 0 0
DWIDTH 0 0
BBX 3 1 0 6
BITMAP
C0
ENDCHAR

STARTCHAR char187
ENCODING 187
SWIDTH 43 0
DWIDTH 4 0
BBX 3 2 0 1
BITMAP
60
60
ENDCHAR

STARTCHAR char191
ENCODING 191
SWIDTH 43 0
DWIDTH 4 0
BBX 4 6 -1 0
BITMAP
30
20
30
20
70
E0
ENDCHAR

STARTCHAR char192
ENCODING 192
SWIDTH 86 0
DWIDTH 8 0
BBX 9 7 -1 0
BITMAP
0400
0100
0300
0700
3E00
CE00
F780
ENDCHAR

STARTCHAR char193
ENCODING 193
SWIDTH 86 0
DWIDTH 8 0
BBX 9 7 -1 0
BITMAP
0400
0100
0300
0700
3E00
CE00
F780
ENDCHAR

STARTCHAR char194
ENCODING 194
SWIDTH 86 0
DWIDTH 8 0
BBX 9 8 -1 0
BITMAP
0400
0E00
0100
0300
0700
3E00
CE00
F780
ENDCHAR

STARTCHAR char195
ENCODING 195
SWIDTH 86 0
DWIDTH 8 0
BBX 9 7 -1 0
BITMAP
0C00
0100
0300
0700
3E00
CE00
F780
ENDCHAR

STARTCHAR char196
ENCODING 196
SWIDTH 86 0
DWIDTH 8 0
BBX 10 7 -1 0
BITMAP
03C0
0100
0300
0600
3E00
CE00
F7C0
ENDCHAR

STARTCHAR char197
ENCODING 197
SWIDTH 86 0
DWIDTH 8 0
BBX 10 8 -1 0
BITMAP
01C0
01C0
0100
0300
0600
3F00
CE00
F780
ENDCHAR

STARTCHAR char198
ENCODING 198
SWIDTH 96 0
DWIDTH 9 0
BBX 10 6 -1 0
BITMAP
06C0
0F40
0F80
3E00
DCC0
FF80
ENDCHAR

STARTCHAR char199
ENCODING 199
SWIDTH 53 0
DWIDTH 5 0
BBX 7 7 -1 -1
BITMAP
1E
26
64
E8
D8
4C
30
ENDCHAR

STARTCHAR char200
ENCODING 200
SWIDTH 53 0
DWIDTH 5 0
BBX 7 7 -1 0
BITMAP
08
0C
14
10
60
C6
F8
ENDCHAR

STARTCHAR char201
ENCODING 201
SWIDTH 53 0
DWIDTH 5 0
BBX 7 7 -1 0
BITMAP
08
0C
14
10
60
C6
F8
ENDCHAR

STARTCHAR char202
ENCODING 202
SWIDTH 53 0
DWIDTH 5 0
BBX 7 8 -1 0
BITMAP
08
14
0C
14
10
60
C6
F8
ENDCHAR

STARTCHAR char203
ENCODING 203
SWIDTH 53 0
DWIDTH 5 0
BBX 7 7 -1 0
BITMAP
1C
1C
1C
10
60
C6
FC
ENDCHAR

STARTCHAR char204
ENCODING 204
SWIDTH 53 0
DWIDTH 5 0
BBX 7 7 -1 0
BITMAP
08
3E
44
04
34
4C
70
ENDCHAR

STARTCHAR char205
ENCODING 205
SWIDTH 53 0
DWIDTH 5 0
BBX 7 7 -1 0
BITMAP
08
00
3C
04
34
4C
70
ENDCHAR

STARTCHAR char206
ENCODING 206
SWIDTH 53 0
DWIDTH 5 0
BBX 7 7 -1 0
BITMAP
08
00
3C
04
34
4C
70
ENDCHAR

STARTCHAR char207
ENCODING 207
SWIDTH 53 0
DWIDTH 5 0
BBX 7 7 -1 0
BITMAP
1C
3E
44
0C
3C
4E
70
ENDCHAR

STARTCHAR char209
ENCODING 209
SWIDTH 75 0
DWIDTH 7 0
BBX 9 7 -1 0
BITMAP
0C00
1B80
2500
4E00
CA00
DE00
3F80
ENDCHAR

STARTCHAR char210
ENCODING 210
SWIDTH 64 0
DWIDTH 6 0
BBX 6 7 -1 0
BITMAP
04
2C
74
D4
C4
CC
70
ENDCHAR

STARTCHAR char211
ENCODING 211
SWIDTH 64 0
DWIDTH 6 0
BBX 6 7 -1 0
BITMAP
08
2C
74
D4
C4
CC
70
ENDCHAR

STARTCHAR char212
ENCODING 212
SWIDTH 64 0
DWIDTH 6 0
BBX 6 8 -1 0
BITMAP
08
0C
2C
74
D4
C4
CC
70
ENDCHAR

STARTCHAR char213
ENCODING 213
SWIDTH 64 0
DWIDTH 6 0
BBX 6 8 -1 0
BITMAP
0C
18
2C
74
D4
C4
C4
78
ENDCHAR

STARTCHAR char214
ENCODING 214
SWIDTH 64 0
DWIDTH 6 0
BBX 6 7 -1 0
BITMAP
1C
2C
74
DC
CC
CC
78
ENDCHAR

STARTCHAR char216
ENCODING 216
SWIDTH 64 0
DWIDTH 6 0
BBX 6 6 -1 0
BITMAP
2C
7C
D4
E4
E8
F0
ENDCHAR

STARTCHAR char217
ENCODING 217
SWIDTH 75 0
DWIDTH 7 0
BBX 9 8 -1 0
BITMAP
0400
0400
1D00
6F00
4B00
DE00
5E00
1F80
ENDCHAR

STARTCHAR char218
ENCODING 218
SWIDTH 75 0
DWIDTH 7 0
BBX 9 7 -1 0
BITMAP
0800
1D00
6F00
4B00
DE00
5E00
1F80
ENDCHAR

STARTCHAR char219
ENCODING 219
SWIDTH 75 0
DWIDTH 7 0
BBX 9 8 -1 0
BITMAP
0C00
0A00
1D00
6F00
4B00
DE00
5E00
1F80
ENDCHAR

STARTCHAR char220
ENCODING 220
SWIDTH 75 0
DWIDTH 7 0
BBX 9 7 -1 0
BITMAP
0700
1E80
6F00
4B00
DE00
5600
1F80
ENDCHAR

STARTCHAR char223
ENCODING 223
SWIDTH 53 0
DWIDTH 5 0
BBX 6 7 -1 -1
BITMAP
1C
28
28
2C
7C
F8
40
ENDCHAR

STARTCHAR char224
ENCODING 224
SWIDTH 43 0
DWIDTH 4 0
BBX 5 5 -1 0
BITMAP
10
00
70
D0
F8
ENDCHAR

STARTCHAR char225
ENCODING 225
SWIDTH 43 0
DWIDTH 4 0
BBX 5 5 -1 0
BITMAP
30
00
70
D0
F8
ENDCHAR

STARTCHAR char226
ENCODING 226
SWIDTH 43 0
DWIDTH 4 0
BBX 5 6 -1 0
BITMAP
10
28
00
70
D0
F8
ENDCHAR

STARTCHAR char227
ENCODING 227
SWIDTH 43 0
DWIDTH 4 0
BBX 6 6 -1 0
BITMAP
1C
30
00
70
D0
F8
ENDCHAR

STARTCHAR char228
ENCODING 228
SWIDTH 43 0
DWIDTH 4 0
BBX 6 5 -1 0
BITMAP
18
00
78
F0
FC
ENDCHAR

STARTCHAR char229
ENCODING 229
SWIDTH 43 0
DWIDTH 4 0
BBX 5 6 -1 0
BITMAP
38
38
00
70
F0
F8
ENDCHAR

STARTCHAR char230
ENCODING 230
SWIDTH 53 0
DWIDTH 5 0
BBX 6 3 -1 0
BITMAP
7C
F8
FC
ENDCHAR

STARTCHAR char231
ENCODING 231
SWIDTH 32 0
DWIDTH 3 0
BBX 4 4 0 -1
BITMAP
E0
C0
E0
C0
ENDCHAR

STARTCHAR char232
ENCODING 232
SWIDTH 32 0
DWIDTH 3 0
BBX 4 5 -1 0
BITMAP
30
00
70
E0
F0
ENDCHAR

STARTCHAR char233
ENCODING 233
SWIDTH 32 0
DWIDTH 3 0
BBX 4 5 -1 0
BITMAP
10
00
70
E0
F0
ENDCHAR

STARTCHAR char234
ENCODING 234
SWIDTH 32 0
DWIDTH 3 0
BBX 4 6 -1 0
BITMAP
10
30
00
70
E0
F0
ENDCHAR

STARTCHAR char235
ENCODING 235
SWIDTH 32 0
DWIDTH 3 0
BBX 4 5 -1 0
BITMAP
70
00
70
E0
F0
ENDCHAR

STARTCHAR char236
ENCODING 236
SWIDTH 21 0
DWIDTH 2 0
BBX 4 5 -1 0
BITMAP
20
00
40
C0
F0
ENDCHAR

STARTCHAR char237
ENCODING 237
SWIDTH 21 0
DWIDTH 2 0
BBX 4 5 -1 0
BITMAP
20
00
40
C0
F0
ENDCHAR

STARTCHAR char238
ENCODING 238
SWIDTH 21 0
DWIDTH 2 0
BBX 4 6 -1 0
BITMAP
20
50
00
40
C0
F0
ENDCHAR

STARTCHAR char239
ENCODING 239
SWIDTH 21 0
DWIDTH 2 0
BBX 4 5 -1 0
BITMAP
70
00
40
C0
F0
ENDCHAR

STARTCHAR char241
ENCODING 241
SWIDTH 43 0
DWIDTH 4 0
BBX 5 6 0 0
BITMAP
28
30
00
F0
E0
F8
ENDCHAR

STARTCHAR char242
ENCODING 242
SWIDTH 43 0
DWIDTH 4 0
BBX 5 5 -1 0
BITMAP
10
30
78
D8
F0
ENDCHAR

STARTCHAR char243
ENCODING 243
SWIDTH 43 0
DWIDTH 4 0
BBX 5 5 -1 0
BITMAP
10
30
78
D8
F0
ENDCHAR

STARTCHAR char244
ENCODING 244
SWIDTH 43 0
DWIDTH 4 0
BBX 5 6 -1 0
BITMAP
10
28
30
78
D8
F0
ENDCHAR

STARTCHAR char245
ENCODING 245
SWIDTH 43 0
DWIDTH 4 0
BBX 5 5 -1 0
BITMAP
30
30
78
D8
F0
ENDCHAR

STARTCHAR char246
ENCODING 246
SWIDTH 43 0
DWIDTH 4 0
BBX 5 5 -1 0
BITMAP
38
10
78
D8
E0
ENDCHAR

STARTCHAR char247
ENCODING 247
SWIDTH 43 0
DWIDTH 4 0
BBX 4 3 0 1
BITMAP
60
F0
60
ENDCHAR

STARTCHAR char248
ENCODING 248
SWIDTH 43 0
DWIDTH 4 0
BBX 5 5 -1 -1
BITMAP
30
70
F8
F0
80
ENDCHAR

STARTCHAR char249
ENCODING 249
SWIDTH 43 0
DWIDTH 4 0
BBX 5 5 -1 0
BITMAP
10
00
50
D0
F8
ENDCHAR

STARTCHAR char250
ENCODING 250
SWIDTH 43 0
DWIDTH 4 0
BBX 5 5 -1 0
BITMAP
10
00
50
D0
F8
ENDCHAR

STARTCHAR char251
ENCODING 251
SWIDTH 43 0
DWIDTH 4 0
BBX 5 6 -1 0
BITMAP
10
28
00
50
D0
F8
ENDCHAR

STARTCHAR char252
ENCODING 252
SWIDTH 43 0
DWIDTH 4 0
BBX 5 5 -1 0
BITMAP
38
00
58
F0
F8
ENDCHAR

STARTCHAR char255
ENCODING 255
SWIDTH 43 0
DWIDTH 4 0
BBX 6 7 -1 -2
BITMAP
38
00
70
D0
EC
30
60
ENDCHAR
ENDFONT
